<?xml version="1.0" encoding="UTF-8"?> <!-- Generator: Adobe Illustrator 24.1.1, SVG Export Plug-In . SVG Version: 6.00 Build 0) --> <svg xmlns="http://www.w3.org/2000/svg" xmlns:xlink="http://www.w3.org/1999/xlink" version="1.1" x="0px" y="0px" viewBox="0 0 650 204.97" style="enable-background:new 0 0 650 204.97;" xml:space="preserve"> <style type="text/css"> .Arched_x0020_Green{fill:url(#SVGID_1_);stroke:#FFFFFF;stroke-width:0.25;stroke-miterlimit:1;} .st0{fill:#95C11F;} .st1{fill:#004A99;} </style> <linearGradient id="SVGID_1_" gradientUnits="userSpaceOnUse" x1="-1444.8231" y1="445.7434" x2="-1444.116" y2="445.0363"> <stop offset="0" style="stop-color:#1DA238"></stop> <stop offset="0.9831" style="stop-color:#24391D"></stop> </linearGradient> <g id="Layer_1"> </g> <g id="Layer_2"> <g> <path class="st0" d="M95.36,73.78c-1.14-1.05-2.62,0.51-1.67,1.67c25.79,31.4-1.98,74.18-39.48,74.81 c-21.1,0.36-37.02-14.47-50.09-29.06c-0.4-0.44-0.88-0.45-1.28-0.24c-0.45,0.12-0.8,0.46-0.73,1.07 c1.96,18.63,9.56,35.67,24.47,47.56c15.28,12.19,35.69,12.46,53.51,6.48c18.56-6.23,31.38-22.87,35.72-41.5 C120.98,112.31,111.77,88.93,95.36,73.78z"></path> <g> <path class="st1" d="M245.12,81.26c0,14.22-4.67,26.23-14.01,36c-9.34,9.77-20.77,14.66-34.27,14.66 c-9.2,0-18.75-2.44-28.67-7.33v79.46h-10.35V33.19h10.35v5.39c9.92-4.88,19.62-7.33,29.1-7.33c13.8,0,25.22,4.74,34.27,14.23 C240.6,54.96,245.12,66.89,245.12,81.26z M233.7,82.12c0-11.78-3.77-21.52-11.32-29.21c-7.54-7.69-17.13-11.53-28.77-11.53 c-8.05,0-16.53,2.37-25.44,7.11v65.96c9.05,4.89,17.96,7.33,26.73,7.33c11.64,0,21.02-3.63,28.13-10.88 C230.14,103.64,233.7,94.05,233.7,82.12z"></path> <path class="st1" d="M337.16,78.03h-76.31c-0.15,1.72-0.21,3.38-0.21,4.96c0,10.92,3.84,20.12,11.53,27.59 c7.69,7.47,16.78,11.21,27.27,11.21c12.07,0,24.07-4.81,36-14.44v11.64c-11.21,8.62-23.64,12.93-37.29,12.93 c-14.09,0-25.65-4.85-34.7-14.55c-9.05-9.7-13.58-22.02-13.58-36.97c0-14.23,4.2-25.97,12.61-35.24c8.41-9.27,19-13.9,31.79-13.9 c11.49,0,21.26,3.74,29.31,11.21C332.63,51.08,337.16,62.94,337.16,78.03z M324.87,69.62c-3.59-18.82-13.8-28.24-30.61-28.24 c-8.05,0-14.95,2.52-20.7,7.55c-5.75,5.03-9.56,11.93-11.42,20.69H324.87z"></path> <path class="st1" d="M411.95,42.67l-6.04,9.7c-8.05-7.33-14.52-10.99-19.4-10.99c-9.77,0-20.12,9.27-31.04,27.81l0.43,60.79 h-10.78V33.19h10.78v25.44c11.5-18.25,22.78-27.38,33.84-27.38C395.93,31.25,403.33,35.06,411.95,42.67z"></path> <path class="st1" d="M497.96,81.69c0,14.37-4.67,26.33-14.01,35.89c-9.34,9.56-21.05,14.33-35.13,14.33 c-14.09,0-25.83-4.78-35.25-14.33c-9.41-9.55-14.12-21.52-14.12-35.89c0-14.37,4.71-26.37,14.12-36 c9.41-9.62,21.16-14.44,35.25-14.44c14.08,0,25.79,4.78,35.13,14.33C493.28,55.14,497.96,67.18,497.96,81.69z M486.96,81.69 c0-11.49-3.63-21.09-10.88-28.78c-7.26-7.69-16.35-11.53-27.27-11.53c-11.07,0-20.23,3.81-27.48,11.42 c-7.26,7.62-10.89,17.24-10.89,28.88c0,11.5,3.63,21.05,10.89,28.67c7.25,7.62,16.42,11.42,27.48,11.42 c10.92,0,20.01-3.8,27.27-11.42C483.33,102.74,486.96,93.19,486.96,81.69z"></path> <path class="st1" d="M563.91,105.18c0,7.62-3.06,13.98-9.16,19.08c-6.11,5.1-13.62,7.65-22.52,7.65c-9.78,0-19.47-2.94-29.1-8.84 v-10.13c11.64,5.89,21.77,8.84,30.39,8.84c5.89,0,10.78-1.58,14.66-4.74c3.88-3.16,5.82-7.18,5.82-12.07 c0-6.32-4.31-11.49-12.94-15.52c-8.05-3.59-16.17-7.19-24.36-10.78c-8.62-5.17-12.93-12.14-12.93-20.91 c0-7.47,3.02-13.76,9.06-18.86c6.03-5.1,13.43-7.65,22.2-7.65c7.76,0,16.38,2.73,25.86,8.19v11.21 c-10.06-6.61-18.9-9.92-26.51-9.92c-5.9,0-10.82,1.58-14.77,4.74c-3.96,3.16-5.93,7.04-5.93,11.64c0,6.32,4.31,11.42,12.93,15.3 c8.05,3.45,16.17,6.97,24.36,10.56C559.6,88.3,563.91,95.7,563.91,105.18z"></path> <path class="st1" d="M649.7,129.97h-10.35V74.79c0-22.27-8.77-33.41-26.3-33.41c-12.22,0-22.78,6.9-31.68,20.69l0.43,67.9h-10.78 V0h10.78v50c8.33-12.5,18.97-18.75,31.9-18.75c10.78,0,19.4,3.31,25.87,9.91c6.75,7.19,10.13,17.03,10.13,29.53V129.97z"></path> </g> <g> <path class="st1" d="M106.75,166.04c-17.1,18.18-42.62,26.57-66.84,19.61c-18.08-5.19-32.32-23.22-38.42-40.49 c-0.13-0.36-0.44-0.51-0.74-0.51c-0.33-0.03-0.65,0.13-0.72,0.48c-0.03,0.08-0.03,0.17-0.02,0.27 c2.81,26.94,19.11,52.55,47.38,57.38c24.86,4.25,51.22-13.38,60.63-35.99C108.31,166.06,107.24,165.52,106.75,166.04z"></path> <path class="st1" d="M34.85,135.46c0.57,0.31,1.15-0.31,0.86-0.87c-12.06-23.63-6.86-52.1,13.32-69.65 c0.02-0.01,0.03-0.02,0.04-0.04c0.01-0.01,0.01-0.01,0.02-0.02c0.28-0.24,0.24-0.55,0.07-0.77c-0.13-0.22-0.36-0.37-0.68-0.28 c-20.01,5.31-34.64,21.03-42.58,39.7c-2.51,5.91,1.9,9.85,5.91,14.4C18.09,125.04,26.54,130.95,34.85,135.46z"></path> </g> <path class="st1" d="M97.92,51.24c0,12.91-10.47,23.38-23.38,23.38c-12.91,0-23.38-10.46-23.38-23.38 c0-12.91,10.47-23.38,23.38-23.38C87.45,27.87,97.92,38.33,97.92,51.24z"></path> <g> <path class="st1" d="M190.88,154.19c1.14-0.19,2.62-0.35,4.52-0.35c2.33,0,4.03,0.54,5.11,1.52c0.97,0.87,1.6,2.19,1.6,3.81 c0,1.65-0.49,2.95-1.41,3.9c-1.27,1.32-3.27,2-5.57,2c-0.7,0-1.35-0.03-1.89-0.16v7.3h-2.35V154.19z M193.23,162.98 c0.51,0.13,1.16,0.19,1.95,0.19c2.84,0,4.57-1.41,4.57-3.87c0-2.43-1.73-3.6-4.3-3.6c-1.03,0-1.81,0.08-2.22,0.19V162.98z"></path> <path class="st1" d="M205.94,166.47l-1.89,5.73h-2.43l6.22-18.23h2.81l6.22,18.23h-2.52l-1.95-5.73H205.94z M211.95,164.63 l-1.81-5.25c-0.41-1.19-0.68-2.27-0.95-3.33h-0.05c-0.27,1.05-0.54,2.19-0.92,3.3l-1.79,5.27H211.95z"></path> <path class="st1" d="M219.55,154.22c1.19-0.22,2.92-0.38,4.52-0.38c2.52,0,4.17,0.49,5.27,1.49c0.89,0.81,1.43,2.06,1.43,3.49 c0,2.38-1.51,3.98-3.41,4.62v0.08c1.38,0.49,2.22,1.79,2.65,3.68c0.59,2.54,1.03,4.3,1.41,5h-2.43c-0.3-0.54-0.7-2.08-1.19-4.36 c-0.54-2.52-1.54-3.46-3.68-3.54h-2.22v7.9h-2.35V154.22z M221.91,162.52h2.41c2.52,0,4.11-1.38,4.11-3.46 c0-2.35-1.7-3.38-4.19-3.38c-1.14,0-1.92,0.08-2.33,0.19V162.52z"></path> <path class="st1" d="M237.81,155.97h-5.54v-2h13.5v2h-5.57v16.23h-2.38V155.97z"></path> <path class="st1" d="M247.8,172.2v-18.23h2.6l5.82,9.22c1.33,2.14,2.41,4.06,3.25,5.92l0.08-0.03c-0.22-2.43-0.27-4.65-0.27-7.49 v-7.63h2.22v18.23h-2.38l-5.79-9.25c-1.27-2.03-2.49-4.11-3.38-6.09l-0.08,0.03c0.14,2.3,0.16,4.49,0.16,7.52v7.79H247.8z"></path> <path class="st1" d="M275.01,163.66h-7.06v6.57h7.9v1.97h-10.28v-18.23h9.87v1.97h-7.49v5.76h7.06V163.66z"></path> <path class="st1" d="M278.91,154.22c1.19-0.22,2.92-0.38,4.52-0.38c2.52,0,4.17,0.49,5.27,1.49c0.89,0.81,1.43,2.06,1.43,3.49 c0,2.38-1.51,3.98-3.41,4.62v0.08c1.38,0.49,2.22,1.79,2.65,3.68c0.59,2.54,1.03,4.3,1.41,5h-2.43c-0.3-0.54-0.7-2.08-1.19-4.36 c-0.54-2.52-1.54-3.46-3.68-3.54h-2.22v7.9h-2.35V154.22z M281.27,162.52h2.41c2.52,0,4.11-1.38,4.11-3.46 c0-2.35-1.7-3.38-4.19-3.38c-1.14,0-1.92,0.08-2.33,0.19V162.52z"></path> <path class="st1" d="M293.17,169.34c1.06,0.68,2.57,1.19,4.19,1.19c2.41,0,3.81-1.27,3.81-3.11c0-1.68-0.97-2.68-3.43-3.6 c-2.98-1.08-4.82-2.65-4.82-5.19c0-2.84,2.35-4.95,5.9-4.95c1.84,0,3.22,0.43,4,0.89l-0.65,1.92c-0.57-0.35-1.79-0.87-3.43-0.87 c-2.49,0-3.44,1.49-3.44,2.73c0,1.7,1.11,2.54,3.62,3.52c3.08,1.19,4.63,2.68,4.63,5.36c0,2.81-2.06,5.28-6.36,5.28 c-1.76,0-3.68-0.54-4.65-1.19L293.17,169.34z"></path> <path class="st1" d="M309.16,153.97v7.63h8.82v-7.63h2.38v18.23h-2.38v-8.55h-8.82v8.55h-2.38v-18.23H309.16z"></path> <path class="st1" d="M326.8,153.97v18.23h-2.38v-18.23H326.8z"></path> <path class="st1" d="M330.91,154.19c1.14-0.19,2.62-0.35,4.52-0.35c2.33,0,4.03,0.54,5.11,1.52c0.97,0.87,1.6,2.19,1.6,3.81 c0,1.65-0.49,2.95-1.41,3.9c-1.27,1.32-3.27,2-5.57,2c-0.7,0-1.35-0.03-1.89-0.16v7.3h-2.35V154.19z M333.27,162.98 c0.51,0.13,1.16,0.19,1.95,0.19c2.84,0,4.57-1.41,4.57-3.87c0-2.43-1.73-3.6-4.3-3.6c-1.03,0-1.81,0.08-2.22,0.19V162.98z"></path> <path class="st1" d="M351.01,153.97h9.82v1.97h-7.44v6.06h6.87v1.95h-6.87v8.25h-2.38V153.97z"></path> <path class="st1" d="M379.8,162.9c0,6.25-3.81,9.6-8.47,9.6c-4.84,0-8.2-3.76-8.2-9.28c0-5.79,3.57-9.58,8.44-9.58 C376.58,153.65,379.8,157.46,379.8,162.9z M365.62,163.17c0,3.92,2.11,7.41,5.84,7.41c3.73,0,5.84-3.44,5.84-7.57 c0-3.65-1.89-7.44-5.82-7.44C367.57,155.57,365.62,159.19,365.62,163.17z"></path> <path class="st1" d="M382.86,154.22c1.19-0.22,2.92-0.38,4.52-0.38c2.52,0,4.17,0.49,5.27,1.49c0.89,0.81,1.43,2.06,1.43,3.49 c0,2.38-1.52,3.98-3.41,4.62v0.08c1.38,0.49,2.22,1.79,2.65,3.68c0.59,2.54,1.03,4.3,1.41,5h-2.43c-0.3-0.54-0.7-2.08-1.19-4.36 c-0.54-2.52-1.54-3.46-3.68-3.54h-2.22v7.9h-2.35V154.22z M385.21,162.52h2.41c2.52,0,4.11-1.38,4.11-3.46 c0-2.35-1.71-3.38-4.19-3.38c-1.14,0-1.92,0.08-2.33,0.19V162.52z"></path> <path class="st1" d="M412.56,163.66h-7.06v6.57h7.9v1.97h-10.28v-18.23h9.87v1.97h-7.49v5.76h7.06V163.66z"></path> <path class="st1" d="M418.81,153.97v10.82c0,4.06,1.81,5.79,4.25,5.79c2.68,0,4.44-1.79,4.44-5.79v-10.82h2.38v10.66 c0,5.6-2.95,7.87-6.9,7.87c-3.73,0-6.55-2.11-6.55-7.79v-10.74H418.81z"></path> <path class="st1" d="M433.96,154.22c1.19-0.22,2.92-0.38,4.52-0.38c2.52,0,4.17,0.49,5.27,1.49c0.89,0.81,1.43,2.06,1.43,3.49 c0,2.38-1.52,3.98-3.41,4.62v0.08c1.38,0.49,2.22,1.79,2.65,3.68c0.59,2.54,1.03,4.3,1.41,5h-2.43c-0.3-0.54-0.7-2.08-1.19-4.36 c-0.54-2.52-1.54-3.46-3.68-3.54h-2.22v7.9h-2.35V154.22z M436.32,162.52h2.41c2.52,0,4.11-1.38,4.11-3.46 c0-2.35-1.71-3.38-4.19-3.38c-1.14,0-1.92,0.08-2.33,0.19V162.52z"></path> <path class="st1" d="M464.18,162.9c0,6.25-3.81,9.6-8.47,9.6c-4.84,0-8.2-3.76-8.2-9.28c0-5.79,3.57-9.58,8.44-9.58 C460.96,153.65,464.18,157.46,464.18,162.9z M450.01,163.17c0,3.92,2.11,7.41,5.84,7.41c3.73,0,5.84-3.44,5.84-7.57 c0-3.65-1.89-7.44-5.82-7.44C451.96,155.57,450.01,159.19,450.01,163.17z"></path> <path class="st1" d="M467.24,154.19c1.14-0.19,2.62-0.35,4.52-0.35c2.33,0,4.03,0.54,5.11,1.52c0.97,0.87,1.6,2.19,1.6,3.81 c0,1.65-0.49,2.95-1.41,3.9c-1.27,1.32-3.27,2-5.57,2c-0.7,0-1.35-0.03-1.89-0.16v7.3h-2.35V154.19z M469.6,162.98 c0.51,0.13,1.16,0.19,1.95,0.19c2.84,0,4.57-1.41,4.57-3.87c0-2.43-1.73-3.6-4.3-3.6c-1.03,0-1.81,0.08-2.22,0.19V162.98z"></path> <path class="st1" d="M491.05,163.66h-7.06v6.57h7.9v1.97h-10.28v-18.23h9.87v1.97h-7.49v5.76h7.06V163.66z"></path> <path class="st1" d="M497.9,166.47L496,172.2h-2.43l6.22-18.23h2.81l6.22,18.23h-2.52l-1.95-5.73H497.9z M503.9,164.63 l-1.81-5.25c-0.41-1.19-0.68-2.27-0.95-3.33h-0.06c-0.27,1.05-0.54,2.19-0.92,3.3l-1.78,5.27H503.9z"></path> <path class="st1" d="M511.51,172.2v-18.23h2.6l5.82,9.22c1.33,2.14,2.41,4.06,3.25,5.92l0.08-0.03 c-0.22-2.43-0.27-4.65-0.27-7.49v-7.63h2.22v18.23h-2.38l-5.79-9.25c-1.27-2.03-2.49-4.11-3.38-6.09l-0.08,0.03 c0.14,2.3,0.16,4.49,0.16,7.52v7.79H511.51z"></path> <path class="st1" d="M535.04,154.22c1.19-0.22,2.92-0.38,4.52-0.38c2.52,0,4.17,0.49,5.27,1.49c0.89,0.81,1.43,2.06,1.43,3.49 c0,2.38-1.52,3.98-3.41,4.62v0.08c1.38,0.49,2.22,1.79,2.65,3.68c0.59,2.54,1.03,4.3,1.41,5h-2.43c-0.3-0.54-0.7-2.08-1.19-4.36 c-0.54-2.52-1.54-3.46-3.68-3.54h-2.22v7.9h-2.35V154.22z M537.4,162.52h2.41c2.52,0,4.11-1.38,4.11-3.46 c0-2.35-1.71-3.38-4.19-3.38c-1.14,0-1.92,0.08-2.33,0.19V162.52z"></path> <path class="st1" d="M559.01,163.66h-7.06v6.57h7.9v1.97h-10.28v-18.23h9.87v1.97h-7.49v5.76h7.06V163.66z"></path> <path class="st1" d="M562.61,169.34c1.05,0.68,2.57,1.19,4.19,1.19c2.41,0,3.81-1.27,3.81-3.11c0-1.68-0.97-2.68-3.43-3.6 c-2.98-1.08-4.81-2.65-4.81-5.19c0-2.84,2.35-4.95,5.9-4.95c1.84,0,3.22,0.43,4,0.89l-0.65,1.92c-0.57-0.35-1.79-0.87-3.44-0.87 c-2.49,0-3.43,1.49-3.43,2.73c0,1.7,1.11,2.54,3.62,3.52c3.08,1.19,4.63,2.68,4.63,5.36c0,2.81-2.06,5.28-6.36,5.28 c-1.76,0-3.68-0.54-4.65-1.19L562.61,169.34z"></path> <path class="st1" d="M585.66,163.66h-7.06v6.57h7.9v1.97h-10.28v-18.23h9.87v1.97h-7.49v5.76h7.06V163.66z"></path> <path class="st1" d="M592.51,166.47l-1.89,5.73h-2.43l6.22-18.23h2.81l6.22,18.23h-2.52l-1.95-5.73H592.51z M598.51,164.63 l-1.81-5.25c-0.41-1.19-0.68-2.27-0.95-3.33h-0.06c-0.27,1.05-0.54,2.19-0.92,3.3l-1.78,5.27H598.51z"></path> <path class="st1" d="M606.12,154.22c1.19-0.22,2.92-0.38,4.52-0.38c2.52,0,4.17,0.49,5.27,1.49c0.89,0.81,1.43,2.06,1.43,3.49 c0,2.38-1.52,3.98-3.41,4.62v0.08c1.38,0.49,2.22,1.79,2.65,3.68c0.59,2.54,1.03,4.3,1.41,5h-2.43c-0.3-0.54-0.7-2.08-1.19-4.36 c-0.54-2.52-1.54-3.46-3.68-3.54h-2.22v7.9h-2.35V154.22z M608.47,162.52h2.41c2.52,0,4.11-1.38,4.11-3.46 c0-2.35-1.71-3.38-4.19-3.38c-1.14,0-1.92,0.08-2.33,0.19V162.52z"></path> <path class="st1" d="M633.47,171.64c-0.84,0.43-2.6,0.87-4.81,0.87c-5.14,0-8.98-3.25-8.98-9.25c0-5.73,3.87-9.57,9.52-9.57 c2.24,0,3.71,0.49,4.33,0.81l-0.59,1.92c-0.87-0.43-2.14-0.76-3.65-0.76c-4.27,0-7.11,2.73-7.11,7.52c0,4.49,2.57,7.33,6.98,7.33 c1.46,0,2.92-0.3,3.87-0.76L633.47,171.64z"></path> <path class="st1" d="M638.8,153.97v7.63h8.82v-7.63H650v18.23h-2.38v-8.55h-8.82v8.55h-2.38v-18.23H638.8z"></path> <path class="st1" d="M193.44,186.44v18.23h-2.38v-18.23H193.44z"></path> <path class="st1" d="M197.85,204.67v-18.23h2.6l5.82,9.22c1.33,2.14,2.41,4.06,3.25,5.92l0.08-0.03 c-0.22-2.43-0.27-4.65-0.27-7.49v-7.63h2.22v18.23h-2.38l-5.79-9.25c-1.27-2.03-2.49-4.11-3.38-6.09l-0.08,0.03 c0.14,2.3,0.16,4.49,0.16,7.52v7.79H197.85z"></path> <path class="st1" d="M237.57,195.37c0,6.25-3.81,9.6-8.47,9.6c-4.84,0-8.2-3.76-8.2-9.28c0-5.79,3.57-9.58,8.44-9.58 C234.35,186.11,237.57,189.93,237.57,195.37z M223.39,195.63c0,3.92,2.11,7.41,5.84,7.41c3.73,0,5.84-3.44,5.84-7.57 c0-3.65-1.89-7.44-5.82-7.44C225.34,188.03,223.39,191.66,223.39,195.63z"></path> <path class="st1" d="M253.64,204.1c-0.84,0.43-2.6,0.87-4.82,0.87c-5.14,0-8.98-3.25-8.98-9.25c0-5.73,3.87-9.57,9.52-9.57 c2.25,0,3.71,0.49,4.33,0.81l-0.59,1.92c-0.87-0.43-2.14-0.76-3.65-0.76c-4.27,0-7.11,2.73-7.11,7.52c0,4.49,2.57,7.33,6.98,7.33 c1.46,0,2.92-0.3,3.87-0.76L253.64,204.1z"></path> <path class="st1" d="M269.06,204.1c-0.84,0.43-2.6,0.87-4.81,0.87c-5.14,0-8.98-3.25-8.98-9.25c0-5.73,3.87-9.57,9.52-9.57 c2.25,0,3.71,0.49,4.33,0.81l-0.6,1.92c-0.87-0.43-2.14-0.76-3.65-0.76c-4.27,0-7.11,2.73-7.11,7.52c0,4.49,2.57,7.33,6.98,7.33 c1.46,0,2.92-0.3,3.87-0.76L269.06,204.1z"></path> <path class="st1" d="M274.69,186.44v10.82c0,4.06,1.81,5.79,4.25,5.79c2.68,0,4.44-1.79,4.44-5.79v-10.82h2.38v10.66 c0,5.6-2.95,7.87-6.9,7.87c-3.73,0-6.55-2.11-6.55-7.79v-10.74H274.69z"></path> <path class="st1" d="M290.14,186.65c1.14-0.19,2.62-0.35,4.52-0.35c2.33,0,4.03,0.54,5.11,1.52c0.97,0.87,1.6,2.19,1.6,3.81 c0,1.65-0.49,2.95-1.41,3.9c-1.27,1.32-3.27,2-5.57,2c-0.7,0-1.35-0.03-1.89-0.16v7.3h-2.35V186.65z M292.49,195.45 c0.51,0.13,1.16,0.19,1.95,0.19c2.84,0,4.57-1.41,4.57-3.87c0-2.43-1.73-3.6-4.3-3.6c-1.03,0-1.81,0.08-2.22,0.19V195.45z"></path> <path class="st1" d="M305.5,198.93l-1.89,5.73h-2.43l6.22-18.23h2.81l6.22,18.23h-2.52l-1.95-5.73H305.5z M311.51,197.1 l-1.81-5.25c-0.41-1.19-0.68-2.27-0.95-3.33h-0.05c-0.27,1.05-0.54,2.19-0.92,3.3l-1.79,5.28H311.51z"></path> <path class="st1" d="M320.79,188.44h-5.55v-2h13.5v2h-5.57v16.23h-2.38V188.44z"></path> <path class="st1" d="M333.42,186.44v18.23h-2.38v-18.23H333.42z"></path> <path class="st1" d="M353.41,195.37c0,6.25-3.81,9.6-8.47,9.6c-4.84,0-8.2-3.76-8.2-9.28c0-5.79,3.57-9.58,8.44-9.58 C350.2,186.11,353.41,189.93,353.41,195.37z M339.24,195.63c0,3.92,2.11,7.41,5.84,7.41c3.73,0,5.84-3.44,5.84-7.57 c0-3.65-1.89-7.44-5.82-7.44C341.19,188.03,339.24,191.66,339.24,195.63z"></path> <path class="st1" d="M356.77,204.67v-18.23h2.6l5.82,9.22c1.33,2.14,2.41,4.06,3.25,5.92l0.08-0.03 c-0.22-2.43-0.27-4.65-0.27-7.49v-7.63h2.22v18.23h-2.38l-5.79-9.25c-1.27-2.03-2.49-4.11-3.38-6.09l-0.08,0.03 c0.13,2.3,0.16,4.49,0.16,7.52v7.79H356.77z"></path> <path class="st1" d="M377.82,198.93l-1.89,5.73h-2.43l6.22-18.23h2.81l6.22,18.23h-2.52l-1.95-5.73H377.82z M383.83,197.1 l-1.81-5.25c-0.41-1.19-0.68-2.27-0.95-3.33h-0.06c-0.27,1.05-0.54,2.19-0.92,3.3l-1.78,5.28H383.83z"></path> <path class="st1" d="M391.7,186.44h2.38v16.26h7.79v1.97H391.7V186.44z"></path> <path class="st1" d="M410.53,201.8c1.06,0.68,2.57,1.19,4.19,1.19c2.41,0,3.81-1.27,3.81-3.11c0-1.68-0.97-2.68-3.43-3.6 c-2.98-1.08-4.82-2.65-4.82-5.19c0-2.84,2.35-4.95,5.9-4.95c1.84,0,3.22,0.43,4,0.89l-0.65,1.92c-0.57-0.35-1.79-0.87-3.44-0.87 c-2.49,0-3.43,1.49-3.43,2.73c0,1.7,1.11,2.54,3.62,3.52c3.08,1.19,4.63,2.68,4.63,5.36c0,2.81-2.06,5.27-6.36,5.27 c-1.76,0-3.68-0.54-4.65-1.19L410.53,201.8z"></path> <path class="st1" d="M427.41,198.93l-1.89,5.73h-2.43l6.22-18.23h2.81l6.22,18.23h-2.52l-1.95-5.73H427.41z M433.42,197.1 l-1.81-5.25c-0.41-1.19-0.68-2.27-0.95-3.33h-0.06c-0.27,1.05-0.54,2.19-0.92,3.3l-1.78,5.28H433.42z"></path> <path class="st1" d="M441.29,186.44h9.82v1.97h-7.44v6.06h6.87v1.95h-6.87v8.25h-2.38V186.44z"></path> <path class="st1" d="M464.21,196.12h-7.06v6.57h7.9v1.97h-10.28v-18.23h9.87v1.97h-7.49v5.76h7.06V196.12z"></path> <path class="st1" d="M472.3,188.44h-5.55v-2h13.5v2h-5.57v16.23h-2.38V188.44z"></path> <path class="st1" d="M487.4,204.67v-7.74l-5.79-10.49h2.71l2.57,5.03c0.68,1.38,1.24,2.49,1.81,3.76h0.06 c0.49-1.19,1.14-2.38,1.84-3.76l2.62-5.03h2.65l-6.09,10.47v7.76H487.4z"></path> <path class="st1" d="M507.25,198.93l-1.89,5.73h-2.43l6.22-18.23h2.81l6.22,18.23h-2.52l-1.95-5.73H507.25z M513.26,197.1 l-1.81-5.25c-0.41-1.19-0.68-2.27-0.95-3.33h-0.06c-0.27,1.05-0.54,2.19-0.92,3.3l-1.78,5.28H513.26z"></path> <path class="st1" d="M521.16,204.67v-18.23h2.6l5.82,9.22c1.33,2.14,2.41,4.06,3.25,5.92l0.08-0.03 c-0.22-2.43-0.27-4.65-0.27-7.49v-7.63h2.22v18.23h-2.38l-5.79-9.25c-1.27-2.03-2.49-4.11-3.38-6.09l-0.08,0.03 c0.14,2.3,0.16,4.49,0.16,7.52v7.79H521.16z"></path> <path class="st1" d="M539.26,186.71c1.43-0.24,3.14-0.41,5-0.41c3.38,0,5.79,0.81,7.38,2.27c1.65,1.49,2.6,3.6,2.6,6.55 c0,2.98-0.95,5.41-2.62,7.09c-1.73,1.71-4.54,2.62-8.09,2.62c-1.7,0-3.08-0.08-4.27-0.22V186.71z M541.61,202.83 c0.59,0.08,1.46,0.11,2.38,0.11c5.06,0,7.76-2.81,7.76-7.74c0.03-4.3-2.41-7.03-7.39-7.03c-1.22,0-2.14,0.11-2.76,0.24V202.83z"></path> <path class="st1" d="M565.96,186.44v7.63h8.82v-7.63h2.38v18.23h-2.38v-8.55h-8.82v8.55h-2.38v-18.23H565.96z"></path> <path class="st1" d="M590.96,196.12h-7.06v6.57h7.9v1.97h-10.28v-18.23h9.87v1.97h-7.49v5.76h7.06V196.12z"></path> <path class="st1" d="M598.1,198.93l-1.89,5.73h-2.43l6.22-18.23h2.81l6.22,18.23h-2.52l-1.95-5.73H598.1z M604.11,197.1 l-1.81-5.25c-0.41-1.19-0.68-2.27-0.95-3.33h-0.06c-0.27,1.05-0.54,2.19-0.92,3.3l-1.78,5.28H604.11z"></path> <path class="st1" d="M611.99,186.44h2.38v16.26h7.79v1.97h-10.17V186.44z"></path> <path class="st1" d="M626.16,188.44h-5.55v-2h13.5v2h-5.57v16.23h-2.38V188.44z"></path> <path class="st1" d="M638.79,186.44v7.63h8.82v-7.63h2.38v18.23h-2.38v-8.55h-8.82v8.55h-2.38v-18.23H638.79z"></path> </g> </g> </g> </svg> 